<svg xmlns="http://www.w3.org/2000/svg" xmlns:xlink="http://www.w3.org/1999/xlink" width="226" height="25" viewBox="0 0 226 25">
    <defs>
        <path id="a" d="M.266.3h45.375V21H.266z"/>
        <path id="c" d="M0 .292h10.95V19.9H0z"/>
        <path id="e" d="M12.438.098H.41v20.468h12.028z"/>
        <path id="g" d="M12.107 20.666V.1H.08v20.567h12.028z"/>
    </defs>
    <g fill="none" fill-rule="evenodd">
        <g transform="translate(174 2)">
            <mask id="b" fill="#fff">
                <use xlink:href="#a"/>
            </mask>
            <path fill="#FFDC00" d="M41.19.301v12.455c.002.017.091 1.71-1.026 2.869-.726.753-1.817 1.134-3.241 1.134-1.425 0-2.515-.381-3.24-1.134-1.118-1.159-1.028-2.852-1.027-2.867L32.658.3h-1.836l-2.617 9.396v2.922c0 2.486.825 4.593 2.386 6.092C32.15 20.21 34.339 21 36.923 21c2.583 0 4.772-.791 6.331-2.289 1.561-1.499 2.387-3.606 2.387-6.092V.3H41.19zm-12.985 0l-5.62 20.175h-4.077L14.25 7.102 9.99 20.476h-4.05L.267.3h4.419l3.473 12.767L12.218.301h4.09l4.132 12.863L23.839.301h4.366z" mask="url(#b)"/>
        </g>
        <g transform="translate(166 2)">
            <mask id="d" fill="#fff">
                <use xlink:href="#c"/>
            </mask>
            <path fill="#FEFEFE" d="M10.95 19.899L5.364.292H3.94l5.585 19.607h1.426zm-5.364 0L0 .292h1.426L7.01 19.899H5.586z" mask="url(#d)"/>
        </g>
        <g fill-rule="nonzero" stroke="#FFF" stroke-linecap="square">
            <path d="M142.123 6.114l13.725 12.744M156 6.228L142.246 19"/>
        </g>
        <g>
            <path fill="#FFF" d="M1.32 2.494v19.158h2.494V2l-2.494.494zm3.39 12.168L11.274 22l1.926-1.364-5.56-6.097 4.8-5.502-1.954-1.288-5.776 6.913zM19.143 20.55c.313 0 .638-.042.976-.126a7.95 7.95 0 0 0 1.013-.328 5.585 5.585 0 0 0 1.74-1.11l.001-3.226h-2.371c-1.203 0-2.079.212-2.63.63-.552.42-.827 1.083-.827 1.992 0 1.445.699 2.168 2.098 2.168m-4.281-2.067c0-1.395.458-2.459 1.376-3.19.918-.73 2.253-1.096 4.006-1.096h2.63v-.882c0-2.134-.927-3.201-2.779-3.201a7.52 7.52 0 0 0-1.873.252c-.653.168-1.252.378-1.797.63l-.67-1.638a9.165 9.165 0 0 1 2.194-.895 8.868 8.868 0 0 1 2.295-.315c3.207 0 4.812 1.739 4.812 5.218v8.822h-1.687l-.272-1.514a8.13 8.13 0 0 1-2.171 1.287c-.77.303-1.5.454-2.195.454-1.208 0-2.154-.35-2.84-1.046-.686-.697-1.029-1.66-1.029-2.886M37.955 8.047l1.786 1.31-4.39 5.597 5.084 6.2-1.761 1.387-6.002-7.463 5.283-7.031zm-6.102 14.141h-2.282V2.703l2.282-.504v19.99zM47.187 20.55c.313 0 .638-.042.976-.126a7.95 7.95 0 0 0 1.013-.328 5.585 5.585 0 0 0 1.74-1.11l.001-3.226h-2.372c-1.202 0-2.078.212-2.63.63-.551.42-.827 1.083-.827 1.992 0 1.445.7 2.168 2.1 2.168m-4.282-2.067c0-1.395.458-2.459 1.376-3.19.917-.73 2.253-1.096 4.006-1.096h2.629v-.882c0-2.134-.926-3.201-2.778-3.201a7.52 7.52 0 0 0-1.873.252c-.653.168-1.252.378-1.798.63l-.67-1.638a9.165 9.165 0 0 1 2.195-.895 8.868 8.868 0 0 1 2.295-.315c3.207 0 4.812 1.739 4.812 5.218v8.822h-1.687l-.273-1.514a8.13 8.13 0 0 1-2.17 1.287c-.77.303-1.5.454-2.195.454-1.208 0-2.154-.35-2.84-1.046-.687-.697-1.03-1.66-1.03-2.886M62.985 10.039c-1.19 0-2.104.453-2.74 1.36-.636.908-.955 2.236-.955 3.983 0 1.731.319 3.037.955 3.92.636.882 1.55 1.322 2.74 1.322 1.207 0 2.13-.44 2.766-1.322.636-.883.955-2.189.955-3.92 0-1.747-.32-3.075-.955-3.982-.636-.908-1.559-1.361-2.766-1.361m0-1.867c1.885 0 3.365.623 4.441 1.867 1.074 1.243 1.611 3.024 1.611 5.343 0 2.285-.533 4.042-1.6 5.269-1.066 1.225-2.55 1.84-4.452 1.84-1.885 0-3.365-.615-4.44-1.84-1.074-1.227-1.612-2.984-1.612-5.269 0-2.319.541-4.1 1.624-5.343 1.083-1.244 2.56-1.867 4.428-1.867"/>
            <g transform="translate(72.393 2)">
                <mask id="f" fill="#fff">
                    <use xlink:href="#e"/>
                </mask>
                <path fill="#FFF" d="M5.816 8.97c-.397 0-.748.034-1.054.101-.305.069-.549.126-.732.177v8.52c.199.033.414.05.645.05h.496c.496 0 .964-.083 1.402-.252a2.938 2.938 0 0 0 1.153-.807c.33-.368.587-.86.77-1.474.18-.613.272-1.364.272-2.256 0-1.328-.202-2.335-.608-3.025-.405-.689-1.187-1.034-2.344-1.034m-.272 11.596c-.513 0-1.018-.02-1.514-.064a18.18 18.18 0 0 1-2.703-.427 5.732 5.732 0 0 1-.917-.29V.753L4.03.098v6.805a5.223 5.223 0 0 1 1.353-.642 5.358 5.358 0 0 1 1.625-.24c1.9 0 3.28.605 4.142 1.816.858 1.21 1.288 2.915 1.288 5.116 0 2.42-.607 4.295-1.823 5.621-1.214 1.328-2.905 1.992-5.07 1.992" mask="url(#f)"/>
            </g>
            <path fill="#FFF" d="M92.094 19.717a4.55 4.55 0 0 0 1.587-.302c.264-.1.508-.219.732-.353.222-.133.41-.269.559-.403v-2.52h-1.663c-1.869 0-2.803.68-2.803 2.04 0 1.026.53 1.538 1.588 1.538m-4.837-1.487c0-1.444.483-2.544 1.452-3.302.967-.756 2.369-1.134 4.203-1.134h2.06v-.453c0-.756-.203-1.315-.608-1.677-.407-.36-.972-.542-1.7-.542-.562 0-1.179.08-1.847.24-.67.16-1.295.382-1.873.667l-.992-2.47c.644-.454 1.426-.822 2.344-1.11a9.023 9.023 0 0 1 2.69-.428c1.738 0 3.064.459 3.982 1.374.916.917 1.376 2.265 1.376 4.046v8.748h-2.555l-.372-1.16c-.727.537-1.427.927-2.095 1.17-.67.244-1.311.367-1.923.367-1.323 0-2.343-.382-3.064-1.146-.718-.765-1.078-1.827-1.078-3.19M102.156 8.424h2.554l.521 1.413a6.971 6.971 0 0 1 2.059-1.299c.76-.31 1.496-.466 2.207-.466 1.505 0 2.663.458 3.473 1.374.81.916 1.215 2.24 1.215 3.97v8.773h-3.696v-8.774c0-.771-.178-1.33-.533-1.675-.355-.344-.938-.518-1.748-.518-.331 0-.715.034-1.154.101-.438.069-.839.161-1.203.278v10.588h-3.695V8.424z"/>
            <g transform="translate(117.934 2)">
                <mask id="h" fill="#fff">
                    <use xlink:href="#g"/>
                </mask>
                <path fill="#FFF" d="M7.47 12.877l4.638 5.596-2.778 2.193-5.63-7.058v6.58H.079V.754l3.62-.654v12.627l5.16-7.108 2.753 1.917z" mask="url(#h)"/>
            </g>
        </g>
    </g>
</svg>
