<svg xmlns="http://www.w3.org/2000/svg" width="296" height="246" viewBox="0 0 296 246">
    <defs>
        <linearGradient id="a" x1="50%" x2="50%" y1="0%" y2="100%">
            <stop offset="0%" stop-opacity="0"/>
            <stop offset="100%"/>
        </linearGradient>
    </defs>
    <g fill="none" fill-rule="evenodd">
        <path fill="#FFF" fill-rule="nonzero" stroke="#E0E0E0" d="M20.5.5h255v245h-255z"/>
        <path fill="#F5F5F5" stroke="#DFDFDF" d="M20.5.5v42h255V.5h-255z"/>
        <text fill="#444" font-family="AppleSDGothicNeo-Regular, Apple SD Gothic Neo" font-size="12" transform="translate(20)">
            <tspan x="24" y="26">해외송금</tspan>
        </text>
        <text fill="#111" font-family="AppleSDGothicNeo-Regular, Apple SD Gothic Neo" font-size="14" transform="translate(44 72)">
            <tspan x="0" y="16">해외송금 보내기</tspan>
        </text>
        <text fill="#111" font-family="AppleSDGothicNeo-Regular, Apple SD Gothic Neo" font-size="14" transform="translate(44 72)">
            <tspan x="0" y="105">해외송금 내역조회</tspan>
        </text>
        <path fill="none" d="M240 72h22v22h-22z"/>
        <path fill="#888" d="M257.406 83.275l.005.005-5.77 5.77-.641-.641 5.134-5.134L251 78.141l.641-.641 5.77 5.77-.005.005z"/>
        <path fill="none" d="M240 161h22v22h-22z"/>
        <path fill="#888" d="M257.406 172.275l.005.005-5.77 5.77-.641-.641 5.134-5.134-5.134-5.134.641-.641 5.77 5.77-.005.005z"/>
        <g>
            <path fill="none" d="M240 202h22v22h-22z"/>
            <path fill="#888" d="M257.406 213.275l.005.005-5.77 5.77-.641-.641 5.134-5.134-5.134-5.134.641-.641 5.77 5.77-.005.005z"/>
        </g>
        <text fill="#111" font-family="AppleSDGothicNeo-Regular, Apple SD Gothic Neo" font-size="14" transform="translate(44 72)">
            <tspan x="0" y="146">거래외국환은행 지정</tspan>
        </text>
        <g>
            <path fill="#FC5C4F" d="M148.5 75h14a7.5 7.5 0 0 1 0 15h-14a7.5 7.5 0 0 1 0-15z"/>
            <path fill="#FFF" d="M146.516 79.623h1.202l2.295 3.817h.016v-3.817h1.132v5.69h-1.21l-2.287-3.81h-.016v3.81h-1.132v-5.69zm5.708 0h4.113v1.052h-2.904v1.219h2.666v.972h-2.666v1.395h2.966v1.051h-4.175v-5.69zm10.23 5.69h-1.202l-.932-3.873h-.016l-.916 3.873h-1.225l-1.456-5.69h1.21l.87 3.873h.015l.956-3.873h1.132l.94 3.92h.015l.901-3.92h1.187l-1.48 5.69z"/>
        </g>
        <g>
            <path fill="#FC5C4F" d="M172.5 205h14a7.5 7.5 0 0 1 0 15h-14a7.5 7.5 0 0 1 0-15z"/>
            <path fill="#FFF" d="M170.516 209.623h1.202l2.295 3.817h.016v-3.817h1.132v5.69h-1.21l-2.287-3.81h-.016v3.81h-1.132v-5.69zm5.708 0h4.113v1.052h-2.904v1.219h2.666v.972h-2.666v1.395h2.966v1.052h-4.175v-5.69zm10.23 5.69h-1.202l-.932-3.873h-.016l-.916 3.872h-1.225l-1.456-5.69h1.21l.87 3.874h.015l.956-3.873h1.132l.94 3.92h.015l.901-3.92h1.187l-1.48 5.69z"/>
        </g>
        <g>
            <path fill="url(#a)" fill-rule="nonzero" d="M21.051 63H275.54l20.051 14H0z" opacity=".12" transform="matrix(1 0 0 -1 0 232)"/>
            <path fill="#FFF" fill-rule="nonzero" stroke="#B8B8B8" d="M.5 92.5h295v62H.5z"/>
            <path fill="none" d="M253 109h30v30h-30z"/>
            <path fill="#888" d="M276.735 124.375l.007.007-7.868 7.868-.874-.874 7-7.001-7-7 .874-.875 7.868 7.868-.007.007z"/>
            <path fill="#111" d="M30.936 128.968h-1.379v-7.032h-1.46v6.345H26.72v-12.977h1.379v5.465h1.46V115h1.378v13.968zm-5.206-5.993c0 1.694-1.265 2.749-3.114 2.749-1.848 0-3.13-1.15-3.13-2.75 0-1.677 1.282-2.732 3.13-2.732 1.85 0 3.114 1.07 3.114 2.733zm-1.378 0c0-.911-.73-1.582-1.736-1.582-1.037 0-1.751.687-1.751 1.582 0 .943.714 1.614 1.751 1.614 1.006 0 1.736-.703 1.736-1.614zm1.67-3.372H19v-1.167h7.022v1.167zm-1.638-2.398h-3.81v-1.15h3.81v1.15zm18.163 8.455c-1.2.144-2.967.287-4.703.367-1.556.08-3.616.128-4.621.128l-.211-1.214c1.135 0 2.497 0 3.876-.032v-2.238c-1.85-.24-3.163-1.518-3.163-3.26 0-1.998 1.67-3.436 3.86-3.436 2.205 0 3.892 1.374 3.892 3.436 0 1.774-1.346 2.989-3.146 3.26v2.174c1.524-.064 3.114-.16 4.087-.304l.13 1.119zm2.174 3.308h-1.428V115h1.428v13.968zm-4.736-9.573c0-1.342-1.07-2.174-2.4-2.174-1.33 0-2.4.895-2.4 2.174 0 1.263 1.07 2.094 2.4 2.094 1.281 0 2.4-.831 2.4-2.094zm18.326 7.064c0 1.614-1.784 2.541-4.898 2.541-3.098 0-4.881-.943-4.881-2.541 0-1.55 1.783-2.51 4.881-2.51 3.114 0 4.898.912 4.898 2.51zm1.508-3.5H47.023v-1.15H52.7v-2.046h1.444v2.045h5.676v1.15zm-.584-3.516l-.649 1.103c-2.173-.368-4.476-1.742-5.173-3.165-.6 1.423-2.822 2.781-5.125 3.165l-.632-1.103c2.368-.256 5.027-1.758 5.027-3.756v-.447h1.492v.447c0 1.998 3 3.58 5.06 3.756zm-5.822 5.641c-2.092 0-3.406.528-3.406 1.39 0 .88 1.314 1.375 3.406 1.375 2.124 0 3.438-.495 3.438-1.374 0-.863-1.314-1.39-3.438-1.39zm18.812 3.692h-9.552v-4.986h9.552v4.986zm-.065-12.945c0 1.822-.162 3.724-.454 5.13h2.14v1.15H61.052v-1.15h9.244c.243-1.039.406-2.94.406-3.995h-7.98v-1.135h9.44zm-1.378 11.827v-2.733h-6.666v2.733h6.666zm21.617-7.927h-2.108v3.292h-1.443V115h1.443v3.564h2.108v1.167zm-5.806 2.589h-6.762v-6.52h1.427v2.14h3.908v-2.157h1.427v6.537zm-1.427-1.151v-2.078h-3.908v2.078h3.908zm5.303 7.607h-9.13v-4.938h8.984v1.15h-7.557v2.654h7.703v1.134zm14.531.192h-1.443V115H105v13.968zm-4.152-12.482c-.08 4.443-2.708 7.703-6.584 9.781l-.876-1.07c3.341-1.583 5.644-4.508 5.904-7.512H94.02v-1.199h6.827z"/>
            <g>
                <path fill="#FC5C4F" d="M123 113h18a9 9 0 0 1 0 18h-18a9 9 0 1 1 0-18z"/>
                <path fill="#FFF" d="M120.847 118.547h1.492l2.85 4.58h.019v-4.58h1.406v6.828h-1.502l-2.84-4.57h-.019v4.57h-1.406v-6.828zm7.086 0h5.106v1.263h-3.605v1.463h3.31v1.166h-3.31v1.674h3.682v1.262h-5.183v-6.828zm12.7 6.828h-1.493l-1.157-4.647h-.019l-1.138 4.647h-1.52l-1.808-6.828H135l1.08 4.648h.02l1.185-4.648h1.406l1.167 4.705h.019l1.119-4.705h1.472l-1.836 6.828z"/>
            </g>
        </g>
    </g>
</svg>
