<?xml version="1.0" encoding="utf-8"?>
<!-- Generator: Adobe Illustrator 22.0.1, SVG Export Plug-In . SVG Version: 6.00 Build 0)  -->
<svg version="1.1" id="Layer_1" xmlns="http://www.w3.org/2000/svg" xmlns:xlink="http://www.w3.org/1999/xlink" x="0px" y="0px"
	 viewBox="0 0 100 125" style="enable-background:new 0 0 100 125;" xml:space="preserve">
<path d="M91.1,86.8l-6.3-55.6c-0.1-1-0.9-1.6-1.9-1.6H72.1v-5.3c0-12.1-10-22-22.1-22s-22.1,9.9-22.1,22v5.3H17.1
	c-1,0-1.8,0.8-1.9,1.6L8.9,86.8c0,0.1,0,0.1,0,0.3c0,5.9,4.8,10.7,10.7,10.7h60.7C86.2,97.8,91,93,91,87.1
	C91.1,87.1,91.1,86.9,91.1,86.8z M34.2,24.2c0-8.6,7.1-15.7,15.8-15.7s15.8,7.1,15.8,15.7v5.3H34.2V24.2z"/>
</svg>
